<?xml version="1.0" encoding="UTF-8" standalone="no"?>
<svg
   width="24.000355"
   height="25.622"
   viewBox="0 0 68.572442 73.205714"
   version="1.1"
   id="svg1"
   xmlns="http://www.w3.org/2000/svg"
   xmlns:svg="http://www.w3.org/2000/svg">
  <defs
     id="defs1" />
  <path
     fill="inherit"
     stroke="#ffffff"
     stroke-linecap="round"
     stroke-linejoin="round"
     d="M 64.339083,17.939402 C 63.394982,10.997559 57.27861,5.5269178 50.028123,4.4668529 48.804883,4.2877261 44.170184,3.6358293 33.433941,3.6358293 h -0.08018 c -10.739142,0 -13.043156,0.6518968 -14.266396,0.8310236 C 12.038736,5.4975544 5.6017865,10.413206 4.0400469,17.4372 3.2888698,20.896368 3.2087044,24.731421 3.3482514,28.249316 c 0.1989283,5.044875 0.2375265,10.080887 0.7007031,15.105221 0.3202062,3.337407 0.8787986,6.648226 1.6715944,9.907606 1.4845381,6.019791 7.4939671,11.02938 13.3816421,13.073223 6.303651,2.131395 13.082666,2.485164 19.578153,1.02188 0.714495,-0.164418 1.421205,-0.355342 2.11988,-0.572607 1.576597,-0.496237 3.426367,-1.051284 4.786196,-2.026199 0.01863,-0.01366 0.03397,-0.03131 0.04473,-0.05168 0.01077,-0.02029 0.01681,-0.04282 0.01756,-0.06577 v -4.868612 c -3.32e-4,-0.02146 -0.0055,-0.04257 -0.01508,-0.06179 -0.0097,-0.01922 -0.02352,-0.03611 -0.04067,-0.04929 -0.01706,-0.01325 -0.03694,-0.02253 -0.05807,-0.02726 -0.0212,-0.0047 -0.04316,-0.0046 -0.06427,2.48e-4 -4.161569,0.983199 -8.426099,1.47604 -12.704709,1.468255 -7.363301,0 -9.343696,-3.456187 -9.910837,-4.895118 -0.455816,-1.243535 -0.745309,-2.540661 -0.861024,-3.858495 -0.0012,-0.02211 0.003,-0.04423 0.01201,-0.06452 0.009,-0.02021 0.02286,-0.0381 0.04017,-0.05209 0.0174,-0.014 0.03785,-0.02378 0.05972,-0.02849 0.02187,-0.0048 0.04456,-0.0043 0.06626,0.0013 4.092242,0.976488 8.287193,1.469329 12.496888,1.468253 1.012437,0 2.021893,0 3.034413,-0.02643 4.233882,-0.117454 8.696376,-0.331819 12.862006,-1.136435 0.103952,-0.02054 0.207821,-0.03819 0.296947,-0.0646 6.57053,-1.248008 12.823406,-5.165229 13.458798,-15.08468 0.02378,-0.390545 0.08316,-4.090502 0.08316,-4.495709 0.003,-1.377222 0.448362,-9.769611 -0.06535,-14.926059 z M 54.226388,42.690899 H 47.317412 V 25.953006 c 0,-3.523777 -1.484571,-5.320867 -4.504157,-5.320867 -3.319433,0 -4.98209,2.126011 -4.98209,6.325104 v 9.1618 h -6.867478 v -9.1618 c 0,-4.199093 -1.66564,-6.325104 -4.985073,-6.325104 -3.001778,0 -4.501176,1.79709 -4.504156,5.320867 V 42.690899 H 14.571362 V 25.445006 c 0,-3.523776 0.909562,-6.323198 2.728603,-8.398351 1.876442,-2.070184 4.337833,-3.133148 7.393037,-3.133148 3.536118,0 6.208313,1.344837 7.989749,4.031776 l 1.719147,2.854256 1.722047,-2.854256 c 1.781435,-2.686939 4.453632,-4.031776 7.983867,-4.031776 3.052223,0 5.513531,1.062964 7.395937,3.133148 1.819124,2.073164 2.728603,4.872588 2.728603,8.398351 z"
     id="path1"
     style="stroke-width:2.15973003;fill:none;stroke-dasharray:none" />
</svg>
